<svg width="14" height="14" viewBox="0 0 14 14" fill="none" xmlns="http://www.w3.org/2000/svg">
<path d="M12.486 3.25C12.486 2.33873 11.7469 1.59961 10.8356 1.59961C9.92433 1.59961 9.18521 2.33873 9.18521 3.25C9.18521 4.16127 9.92433 4.90039 10.8356 4.90039C11.7469 4.90039 12.486 4.16127 12.486 3.25ZM13.6852 3.25C13.6852 4.82401 12.4096 6.09961 10.8356 6.09961C9.26159 6.09961 7.98599 4.82401 7.98599 3.25C7.98599 1.67599 9.26159 0.400391 10.8356 0.400391C12.4096 0.400391 13.6852 1.67599 13.6852 3.25Z" fill="white"/>
<path d="M4.98599 10.75C4.98599 9.83873 4.24687 9.09961 3.3356 9.09961C2.42433 9.09961 1.68521 9.83873 1.68521 10.75C1.68521 11.6613 2.42433 12.4004 3.3356 12.4004C4.24687 12.4004 4.98599 11.6613 4.98599 10.75ZM6.18521 10.75C6.18521 12.324 4.90961 13.5996 3.3356 13.5996C1.76159 13.5996 0.485992 12.324 0.485992 10.75C0.485992 9.17599 1.76159 7.90039 3.3356 7.90039C4.90961 7.90039 6.18521 9.17599 6.18521 10.75Z" fill="white"/>
<path d="M12.486 9.09961H9.18521V12.25C9.18521 12.2898 9.20103 12.3283 9.22916 12.3564C9.25729 12.3846 9.29582 12.4004 9.3356 12.4004H12.3356C12.3754 12.4004 12.4139 12.3846 12.442 12.3564C12.4702 12.3283 12.486 12.2898 12.486 12.25V9.09961ZM4.98599 1.59961H1.68521V4.75C1.68521 4.78978 1.70103 4.82831 1.72916 4.85645C1.75729 4.88458 1.79582 4.90039 1.8356 4.90039H4.8356C4.87538 4.90039 4.91392 4.88458 4.94205 4.85645C4.97018 4.82831 4.98599 4.78978 4.98599 4.75V1.59961ZM13.6852 12.25C13.6852 12.608 13.5439 12.9519 13.2907 13.2051C13.0375 13.4583 12.6936 13.5996 12.3356 13.5996H9.3356C8.97756 13.5996 8.6337 13.4583 8.38052 13.2051C8.12735 12.9519 7.98599 12.608 7.98599 12.25V8.5C7.98599 8.16863 8.25423 7.90039 8.5856 7.90039H13.0856C13.417 7.90039 13.6852 8.16863 13.6852 8.5V12.25ZM6.18521 4.75C6.18521 5.10804 6.04385 5.4519 5.79068 5.70508C5.53751 5.95825 5.19364 6.09961 4.8356 6.09961H1.8356C1.47756 6.09961 1.1337 5.95825 0.880524 5.70508C0.62735 5.4519 0.485992 5.10804 0.485992 4.75V1C0.485992 0.668629 0.754231 0.400391 1.0856 0.400391H5.5856C5.91697 0.400391 6.18521 0.668629 6.18521 1V4.75Z" fill="white"/>
</svg>
