<svg width="20" height="24" viewBox="0 0 20 24" fill="none" xmlns="http://www.w3.org/2000/svg">
<path d="M9.12402 0.5C10.0687 0.5 10.8135 1.259 10.8135 2.18652V2.52344C11.0777 1.92512 11.6831 1.50977 12.3789 1.50977C13.3234 1.50994 14.0682 2.269 14.0684 3.19629V12.1738C14.1005 12.1447 14.1353 12.1157 14.1699 12.083C15.2842 11.026 16.1852 10.5746 16.9346 10.499C17.7137 10.4205 18.2273 10.7577 18.5244 11.0186C18.8988 11.3473 19.0328 11.8005 18.9932 12.2295C18.9542 12.6497 18.751 13.0557 18.4414 13.3613L18.4287 13.374L18.415 13.3857C16.2534 15.2315 15.0376 18.0916 14.46 19.248C14.4337 19.3041 14.4041 19.3612 14.3701 19.4209L14.3711 19.4219C14.3186 19.5255 14.2529 19.6377 14.1777 19.7295C14.1705 19.7425 14.1599 19.7591 14.1465 19.7783C14.1454 19.7798 14.1451 19.7815 14.1445 19.7822L14.1436 19.7812C14.1386 19.7883 14.1328 19.7952 14.127 19.8027L14.1299 19.8047C13.682 20.4038 13.0319 20.8438 12.2812 21.0332V21.8135C12.2812 22.7493 11.5111 23.5 10.5791 23.5H5.76953C4.83753 23.5 4.06738 22.7493 4.06738 21.8135V20.4355C2.24472 19.462 1 17.5577 1 15.3613V4.98438L1.00879 4.81152C1.09702 3.9557 1.83238 3.30273 2.70703 3.30273C3.38343 3.30282 3.95749 3.6912 4.22852 4.25391V3.04199C4.22852 2.10265 5.00276 1.35938 5.93555 1.35938C6.57904 1.35955 7.13148 1.71077 7.41699 2.22949V2.18652C7.41699 1.2441 8.19009 0.500067 9.12402 0.5Z" fill="#FFD3B6" stroke="#C637E5"/>
</svg>
