<svg width="20" height="21" viewBox="0 0 20 21" fill="none" xmlns="http://www.w3.org/2000/svg">
<g clip-path="url(#clip0_40_1600)">
<rect y="0.5" width="20" height="20" rx="10" fill="#F4B118"/>
<path fill-rule="evenodd" clip-rule="evenodd" d="M20 10.5C20 13.1522 18.9464 15.6957 17.0711 17.5711C15.1957 19.4464 12.6522 20.5 10 20.5C7.34784 20.5 4.8043 19.4464 2.92893 17.5711C1.05357 15.6957 0 13.1522 0 10.5C0 7.84784 1.05357 5.3043 2.92893 3.42893C4.8043 1.55357 7.34784 0.5 10 0.5C12.6522 0.5 15.1957 1.55357 17.0711 3.42893C18.9464 5.3043 20 7.84784 20 10.5ZM11.0714 5.14286C11.0714 4.8587 10.9585 4.58617 10.7576 4.38524C10.5567 4.18431 10.2842 4.07143 10 4.07143C9.71584 4.07143 9.44332 4.18431 9.24239 4.38524C9.04145 4.58617 8.92857 4.8587 8.92857 5.14286V5.87143C8.29952 5.93911 7.71504 6.22833 7.27964 6.68737C6.84424 7.14641 6.58631 7.74535 6.55196 8.37711C6.5176 9.00886 6.70907 9.63224 7.09212 10.1358C7.47518 10.6393 8.02485 10.9902 8.64286 11.1257L10.7486 11.5871C10.9215 11.624 11.0746 11.7237 11.1783 11.8669C11.2819 12.0102 11.3288 12.1868 11.3098 12.3626C11.2907 12.5383 11.2072 12.7008 11.0753 12.8186C10.9434 12.9363 10.7725 13.001 10.5957 13H9.40429C9.25673 12.9999 9.11282 12.9541 8.99234 12.869C8.87186 12.7838 8.78071 12.6634 8.73143 12.5243C8.63671 12.2562 8.43938 12.0368 8.18286 11.9142C7.92634 11.7916 7.63163 11.776 7.36357 11.8707C7.09551 11.9654 6.87606 12.1628 6.75349 12.4193C6.63092 12.6758 6.61528 12.9705 6.71 13.2386C7.05143 14.2014 7.89571 14.93 8.92857 15.1029V15.8571C8.92857 16.1413 9.04145 16.4138 9.24239 16.6148C9.44332 16.8157 9.71584 16.9286 10 16.9286C10.2842 16.9286 10.5567 16.8157 10.7576 16.6148C10.9585 16.4138 11.0714 16.1413 11.0714 15.8571V15.1029C11.7253 14.9916 12.3201 14.6565 12.754 14.1548C13.1879 13.6532 13.4339 13.0163 13.4498 12.3532C13.4656 11.6901 13.2504 11.0421 12.841 10.5203C12.4316 9.99848 11.8535 9.63525 11.2057 9.49286L9.10143 9.03286C8.97627 9.00459 8.86587 8.93129 8.79125 8.8269C8.71663 8.72252 8.683 8.59434 8.69677 8.46676C8.71053 8.33919 8.77072 8.22113 8.86589 8.13506C8.96105 8.04899 9.08455 8.00092 9.21286 8H10.5957C10.7433 8.00008 10.8872 8.04586 11.0077 8.13105C11.1281 8.21623 11.2193 8.33663 11.2686 8.47571C11.3155 8.60844 11.3881 8.73063 11.4822 8.83531C11.5763 8.93999 11.6901 9.0251 11.8171 9.08579C11.9442 9.14648 12.0819 9.18156 12.2225 9.18902C12.363 9.19648 12.5037 9.17619 12.6364 9.12929C12.7692 9.08239 12.8913 9.0098 12.996 8.91568C13.1007 8.82155 13.1858 8.70773 13.2465 8.58072C13.3072 8.4537 13.3423 8.31597 13.3497 8.1754C13.3572 8.03482 13.3369 7.89416 13.29 7.76143C13.12 7.28109 12.8247 6.85494 12.4346 6.52714C12.0445 6.19935 11.5739 5.98184 11.0714 5.89714V5.14286Z" fill="white"/>
</g>
<defs>
<clipPath id="clip0_40_1600">
<rect y="0.5" width="20" height="20" rx="10" fill="white"/>
</clipPath>
</defs>
</svg>
