<svg width="25" height="24" viewBox="0 0 25 24" fill="none" xmlns="http://www.w3.org/2000/svg">
<path d="M12.5 1.99805C18.024 1.99805 22.502 6.47605 22.502 12C22.502 17.523 18.024 22 12.5 22C6.97605 22 2.49805 17.523 2.49805 12C2.49805 6.47605 6.97605 1.99805 12.5 1.99805ZM8.96205 14.783C8.90111 14.7056 8.82553 14.641 8.73961 14.5928C8.65369 14.5446 8.55911 14.5138 8.46129 14.5021C8.26372 14.4786 8.06489 14.5345 7.90855 14.6575C7.83113 14.7185 7.76648 14.7941 7.71827 14.88C7.67007 14.9659 7.63926 15.0605 7.62761 15.1583C7.60407 15.3559 7.65999 15.5547 7.78305 15.711C8.34418 16.4254 9.06045 17.0029 9.87766 17.3996C10.6949 17.7963 11.5916 18.002 12.5 18.001C13.4071 18.002 14.3026 17.7969 15.1188 17.4012C15.9351 17.0056 16.6508 16.4297 17.212 15.717C17.2731 15.6398 17.3184 15.5512 17.3452 15.4564C17.372 15.3617 17.38 15.2625 17.3685 15.1647C17.357 15.0669 17.3264 14.9723 17.2784 14.8863C17.2303 14.8003 17.1658 14.7246 17.0885 14.6635C17.0113 14.6025 16.9227 14.5572 16.8279 14.5304C16.7332 14.5036 16.634 14.4956 16.5362 14.5071C16.4384 14.5186 16.3438 14.5492 16.2578 14.5972C16.1718 14.6453 16.0961 14.7098 16.035 14.787C15.6143 15.322 15.0774 15.7543 14.465 16.0512C13.8525 16.3481 13.1806 16.502 12.5 16.501C11.102 16.501 9.81005 15.861 8.96205 14.783ZM9.50005 8.75005C9.33299 8.74532 9.16667 8.77414 9.01095 8.83481C8.85522 8.89548 8.71324 8.98676 8.5934 9.10325C8.47356 9.21975 8.3783 9.35909 8.31326 9.51304C8.24821 9.66699 8.21469 9.83242 8.21469 9.99955C8.21469 10.1667 8.24821 10.3321 8.31326 10.4861C8.3783 10.64 8.47356 10.7793 8.5934 10.8958C8.71324 11.0123 8.85522 11.1036 9.01095 11.1643C9.16667 11.225 9.33299 11.2538 9.50005 11.249C9.82532 11.2398 10.1342 11.1042 10.361 10.8708C10.5878 10.6375 10.7147 10.3249 10.7147 9.99955C10.7147 9.67415 10.5878 9.36157 10.361 9.12825C10.1342 8.89493 9.82532 8.75925 9.50005 8.75005ZM15.5 8.75005C15.333 8.74532 15.1667 8.77414 15.0109 8.83481C14.8552 8.89548 14.7132 8.98676 14.5934 9.10325C14.4736 9.21975 14.3783 9.35909 14.3133 9.51304C14.2482 9.66699 14.2147 9.83242 14.2147 9.99955C14.2147 10.1667 14.2482 10.3321 14.3133 10.4861C14.3783 10.64 14.4736 10.7793 14.5934 10.8958C14.7132 11.0123 14.8552 11.1036 15.0109 11.1643C15.1667 11.225 15.333 11.2538 15.5 11.249C15.8253 11.2398 16.1342 11.1042 16.361 10.8708C16.5878 10.6375 16.7147 10.3249 16.7147 9.99955C16.7147 9.67415 16.5878 9.36157 16.361 9.12825C16.1342 8.89493 15.8253 8.75925 15.5 8.75005Z" fill="white"/>
</svg>
