<svg width="25" height="25" viewBox="0 0 25 25" fill="none" xmlns="http://www.w3.org/2000/svg">
<g clip-path="url(#clip0_40_2054)">
<path d="M22.6671 11.8344C22.1562 11.3797 21.0265 10.7516 18.7062 12.9828C18.2749 13.3953 18.0171 13.5453 17.689 13.9016V2.89531C17.689 2.18281 17.1265 1.60156 16.4093 1.60156C15.6921 1.60156 15.1108 2.18281 15.1108 2.89531V9.425C15.1108 10.0344 14.3233 10.0859 14.1874 9.58437V1.79375C14.1874 1.08125 13.6249 0.5 12.9077 0.5C12.1905 0.5 11.6093 1.07656 11.6093 1.79375V9.60781C11.5108 10.0859 10.8077 10.0672 10.7562 9.55156V2.72656C10.7562 2.01406 10.1937 1.4375 9.47647 1.4375C8.75928 1.4375 8.17803 2.01406 8.17803 2.72656V9.44375C8.17334 9.45312 8.17334 9.46719 8.17334 9.49062C8.17334 10.0766 7.41865 10.1281 7.28271 9.65469V4.84531C7.28271 4.13281 6.72022 3.55625 6.00303 3.55625C5.28584 3.55625 4.70459 4.13281 4.70459 4.84531V16.1609C4.70459 18.4578 6.05459 20.4406 8.00459 21.3594V23.1969C8.00459 23.9094 8.58584 24.4906 9.29834 24.4906H14.4733C15.1858 24.4906 15.7671 23.9094 15.7671 23.1969V21.8937C16.6249 21.7953 17.3749 21.3406 17.8624 20.6797C17.8718 20.6703 17.8765 20.6609 17.8812 20.6516C17.8952 20.6328 17.9093 20.6141 17.9187 20.5953C17.9608 20.5484 18.0124 20.4641 18.0733 20.3422C18.1062 20.2859 18.1343 20.2297 18.1624 20.1687C18.7577 18.9641 20.1171 15.7016 22.5546 13.5922C23.0562 13.0906 23.178 12.2891 22.6671 11.8344Z" fill="#FFD3B6"/>
<path d="M15.4813 21.9174H11.4735L11.4829 21.908H10.4329C9.56103 21.908 8.73135 21.7111 7.99072 21.3643V23.0049C8.2251 23.1268 8.4501 23.2064 8.64228 23.2064H15.1157C15.3032 23.2064 15.5235 23.1455 15.7532 23.0471V21.9033C15.6642 21.908 15.5751 21.9127 15.4813 21.9174Z" fill="#F2C7AA"/>
</g>
<defs>
<clipPath id="clip0_40_2054">
<rect width="24" height="24" fill="white" transform="translate(0.5 0.5)"/>
</clipPath>
</defs>
</svg>
