<svg width="25" height="24" viewBox="0 0 25 24" fill="none" xmlns="http://www.w3.org/2000/svg">
<path d="M20.9967 8.01002L14.4467 2.77002C13.1667 1.75002 11.1667 1.74002 9.89667 2.76002L3.34667 8.01002C2.40667 8.76002 1.83667 10.26 2.03667 11.44L3.29667 18.98C3.58667 20.67 5.15667 22 6.86667 22H17.4667C19.1567 22 20.7567 20.64 21.0467 18.97L22.3067 11.43C22.4867 10.26 21.9167 8.76002 20.9967 8.01002ZM12.9167 18C12.9167 18.41 12.5767 18.75 12.1667 18.75C11.7567 18.75 11.4167 18.41 11.4167 18V15C11.4167 14.59 11.7567 14.25 12.1667 14.25C12.5767 14.25 12.9167 14.59 12.9167 15V18Z" fill="white"/>
</svg>
