<svg width="24" height="24" viewBox="0 0 24 24" fill="none" xmlns="http://www.w3.org/2000/svg">
<path d="M18.2498 10.9998C18.2498 10.0477 18.0624 9.10491 17.698 8.22534C17.3337 7.3459 16.7998 6.54692 16.1267 5.87378C15.4535 5.20054 14.6538 4.66587 13.7742 4.30151C12.8947 3.93725 11.9518 3.74976 10.9998 3.74976C10.0477 3.74978 9.10494 3.93718 8.22537 4.30151C7.34575 4.66587 6.54705 5.20054 5.87381 5.87378C4.51418 7.23341 3.74984 9.07696 3.74979 10.9998C3.74979 12.9226 4.51413 14.767 5.87381 16.1267C7.23341 17.4862 9.07712 18.2497 10.9998 18.2498C12.9227 18.2498 14.7671 17.4864 16.1267 16.1267C16.8 15.4535 17.3337 14.6538 17.698 13.7742C18.0623 12.8946 18.2498 11.9518 18.2498 10.9998ZM19.7498 10.9998C19.7498 12.1488 19.5235 13.2868 19.0838 14.3484C18.74 15.1783 18.2696 15.9475 17.6931 16.6326L21.5301 20.4695C21.823 20.7624 21.823 21.2371 21.5301 21.53C21.2372 21.8229 20.7624 21.8229 20.4695 21.53L16.6326 17.6931C15.0615 19.0153 13.0691 19.7498 10.9998 19.7498C8.67916 19.7497 6.45322 18.8282 4.81229 17.1873C3.17143 15.5463 2.24979 13.3204 2.24979 10.9998C2.24984 8.67913 3.17135 6.45319 4.81229 4.81226C5.62476 3.99978 6.58962 3.35551 7.65115 2.91577C8.71271 2.47606 9.85076 2.24978 10.9998 2.24976C12.1488 2.24976 13.2868 2.47607 14.3484 2.91577C15.41 3.35547 16.3748 3.99982 17.1873 4.81226C17.9997 5.62469 18.644 6.58964 19.0838 7.65112C19.5235 8.71268 19.7498 9.85073 19.7498 10.9998Z" fill="white"/>
</svg>
