<svg width="17" height="16" viewBox="0 0 17 16" fill="none" xmlns="http://www.w3.org/2000/svg">
<path d="M8.5 11.3333C8.68889 11.3333 8.84733 11.2693 8.97533 11.1413C9.10333 11.0133 9.16711 10.8551 9.16667 10.6667C9.16622 10.4782 9.10222 10.32 8.97467 10.192C8.84711 10.064 8.68889 10 8.5 10C8.31111 10 8.15289 10.064 8.02533 10.192C7.89778 10.32 7.83378 10.4782 7.83333 10.6667C7.83289 10.8551 7.89689 11.0136 8.02533 11.142C8.15378 11.2704 8.312 11.3342 8.5 11.3333ZM7.83333 8.66667H9.16667V4.66667H7.83333V8.66667ZM6 14L2.5 10.5V5.5L6 2H11L14.5 5.5V10.5L11 14H6Z" fill="white"/>
</svg>
