<svg width="19" height="18" viewBox="0 0 19 18" fill="none" xmlns="http://www.w3.org/2000/svg">
<path d="M9.5 10.5C8.875 10.5 8.34375 10.2812 7.90625 9.84375C7.46875 9.40625 7.25 8.875 7.25 8.25V3.75C7.25 3.125 7.46875 2.59375 7.90625 2.15625C8.34375 1.71875 8.875 1.5 9.5 1.5C10.125 1.5 10.6562 1.71875 11.0938 2.15625C11.5312 2.59375 11.75 3.125 11.75 3.75V8.25C11.75 8.875 11.5312 9.40625 11.0938 9.84375C10.6562 10.2812 10.125 10.5 9.5 10.5ZM8.75 15.75V13.4437C7.45 13.2687 6.375 12.6875 5.525 11.7C4.675 10.7125 4.25 9.5625 4.25 8.25H5.75C5.75 9.2875 6.11575 10.172 6.84725 10.9035C7.57875 11.635 8.463 12.0005 9.5 12C10.537 11.9995 11.4215 11.6337 12.1535 10.9028C12.8855 10.1718 13.251 9.2875 13.25 8.25H14.75C14.75 9.5625 14.325 10.7125 13.475 11.7C12.625 12.6875 11.55 13.2687 10.25 13.4437V15.75H8.75Z" fill="white"/>
</svg>
