<svg width="25" height="24" viewBox="0 0 25 24" fill="none" xmlns="http://www.w3.org/2000/svg">
<rect x="0.5" width="24" height="24" rx="12" fill="white"/>
<path d="M12.5 13.5789C11.9643 13.5789 11.5089 13.3947 11.1339 13.0263C10.7589 12.6579 10.5714 12.2105 10.5714 11.6842V7.89474C10.5714 7.36842 10.7589 6.92105 11.1339 6.55263C11.5089 6.18421 11.9643 6 12.5 6C13.0357 6 13.4911 6.18421 13.8661 6.55263C14.2411 6.92105 14.4286 7.36842 14.4286 7.89474V11.6842C14.4286 12.2105 14.2411 12.6579 13.8661 13.0263C13.4911 13.3947 13.0357 13.5789 12.5 13.5789ZM11.8571 18V16.0579C10.7429 15.9105 9.82143 15.4211 9.09286 14.5895C8.36429 13.7579 8 12.7895 8 11.6842H9.28571C9.28571 12.5579 9.59921 13.3027 10.2262 13.9187C10.8532 14.5347 11.6111 14.8425 12.5 14.8421C13.3889 14.8417 14.147 14.5337 14.7744 13.9181C15.4019 13.3025 15.7151 12.5579 15.7143 11.6842H17C17 12.7895 16.6357 13.7579 15.9071 14.5895C15.1786 15.4211 14.2571 15.9105 13.1429 16.0579V18H11.8571Z" fill="#C637E5"/>
</svg>
