<svg width="16" height="17" viewBox="0 0 16 17" fill="none" xmlns="http://www.w3.org/2000/svg">
<g clip-path="url(#clip0_40_399)">
<path d="M7.467 0.632948C7.81369 0.52209 8.18631 0.52209 8.533 0.632948L13.783 2.31295C14.1364 2.42594 14.4447 2.6483 14.6634 2.94793C14.8822 3.24757 15 3.60896 15 3.97995V7.49995C15 9.06595 14.68 10.6819 13.697 12.1819C12.714 13.6799 11.112 14.9949 8.665 16.0369C8.45469 16.1263 8.22852 16.1724 8 16.1724C7.77148 16.1724 7.54531 16.1263 7.335 16.0369C4.888 14.9949 3.286 13.6799 2.303 12.1819C1.32 10.6819 1 9.06595 1 7.49995V3.97995C0.99997 3.60896 1.11784 3.24757 1.33658 2.94793C1.55533 2.6483 1.86364 2.42594 2.217 2.31295L7.467 0.632948ZM8.077 2.06195C8.02725 2.04596 7.97375 2.04596 7.924 2.06195L2.674 3.74195C2.62352 3.75806 2.57946 3.78979 2.54818 3.83257C2.51691 3.87535 2.50004 3.92696 2.5 3.97995V7.49995C2.5 8.85795 2.775 10.1659 3.557 11.3599C4.341 12.5539 5.678 13.6999 7.923 14.6569C7.9474 14.6671 7.97357 14.6724 8 14.6724C8.02643 14.6724 8.0526 14.6671 8.077 14.6569C10.322 13.7009 11.659 12.5529 12.443 11.3589C13.225 10.1659 13.5 8.85995 13.5 7.49995V3.97995C13.4998 3.92713 13.4828 3.87574 13.4515 3.83317C13.4203 3.79059 13.3763 3.75901 13.326 3.74295L8.077 2.06195ZM8.75 5.24995V8.24995C8.75 8.44886 8.67098 8.63963 8.53033 8.78028C8.38968 8.92093 8.19891 8.99995 8 8.99995C7.80109 8.99995 7.61032 8.92093 7.46967 8.78028C7.32902 8.63963 7.25 8.44886 7.25 8.24995V5.24995C7.25 5.05104 7.32902 4.86027 7.46967 4.71962C7.61032 4.57897 7.80109 4.49995 8 4.49995C8.19891 4.49995 8.38968 4.57897 8.53033 4.71962C8.67098 4.86027 8.75 5.05104 8.75 5.24995ZM9 10.9999C9 11.2652 8.89464 11.5195 8.70711 11.7071C8.51957 11.8946 8.26522 11.9999 8 11.9999C7.73478 11.9999 7.48043 11.8946 7.29289 11.7071C7.10536 11.5195 7 11.2652 7 10.9999C7 10.7347 7.10536 10.4804 7.29289 10.2928C7.48043 10.1053 7.73478 9.99995 8 9.99995C8.26522 9.99995 8.51957 10.1053 8.70711 10.2928C8.89464 10.4804 9 10.7347 9 10.9999Z" fill="white"/>
</g>
<defs>
<clipPath id="clip0_40_399">
<rect width="16" height="16" fill="white" transform="translate(0 0.5)"/>
</clipPath>
</defs>
</svg>
