<svg width="14" height="15" viewBox="0 0 14 15" fill="none" xmlns="http://www.w3.org/2000/svg">
<path fill-rule="evenodd" clip-rule="evenodd" d="M5.30697 10.4353L1.5152 14.2223C1.43509 14.3082 1.33849 14.3771 1.23115 14.4248C1.12382 14.4726 1.00795 14.4983 0.89046 14.5004C0.772971 14.5024 0.656267 14.4808 0.547311 14.4369C0.438355 14.3929 0.339379 14.3275 0.256289 14.2445C0.173198 14.1615 0.107694 14.0627 0.0636848 13.9539C0.0196757 13.8451 -0.00193679 13.7285 0.000136179 13.6112C0.00220915 13.4938 0.0279254 13.3781 0.0757507 13.2709C0.123576 13.1637 0.19253 13.0672 0.278501 12.9872L4.07027 9.2002L5.30697 10.4353Z" fill="white"/>
<path d="M9.42426 1.01403C9.23108 0.820439 8.99514 0.674792 8.73538 0.588788C8.47562 0.502784 8.19928 0.478819 7.92857 0.51882C7.65785 0.558821 7.4003 0.661672 7.17661 0.819112C6.95291 0.976552 6.7693 1.18419 6.64052 1.42536L4.28379 5.84158L1.0042 6.93457C0.90979 6.96589 0.82497 7.0208 0.757799 7.09409C0.690629 7.16737 0.643339 7.2566 0.620424 7.35328C0.597509 7.44996 0.59973 7.55089 0.626877 7.64647C0.654024 7.74205 0.705194 7.82912 0.775524 7.89938L6.60902 13.7255C6.67937 13.7958 6.76655 13.8469 6.86225 13.874C6.95795 13.9011 7.05901 13.9033 7.15581 13.8804C7.25262 13.8576 7.34195 13.8103 7.41533 13.7432C7.48871 13.6762 7.54369 13.5914 7.57505 13.4972L8.66824 10.2217L13.0772 7.86443C13.3175 7.73567 13.5244 7.5526 13.6813 7.32984C13.8382 7.10707 13.9408 6.85077 13.9809 6.58137C14.021 6.31197 13.9975 6.03694 13.9123 5.77821C13.8271 5.51948 13.6826 5.28421 13.4902 5.09118L9.42426 1.01403Z" fill="url(#paint0_linear_40_5642)"/>
<path d="M9.42426 1.01403C9.23108 0.820439 8.99514 0.674792 8.73538 0.588788C8.47562 0.502784 8.19928 0.478819 7.92857 0.51882C7.65785 0.558821 7.4003 0.661672 7.17661 0.819112C6.95291 0.976552 6.7693 1.18419 6.64052 1.42536L4.28379 5.84158L1.0042 6.93457C0.90979 6.96589 0.82497 7.0208 0.757799 7.09409C0.690629 7.16737 0.643339 7.2566 0.620424 7.35328C0.597509 7.44996 0.59973 7.55089 0.626877 7.64647C0.654024 7.74205 0.705194 7.82912 0.775524 7.89938L6.60902 13.7255C6.67937 13.7958 6.76655 13.8469 6.86225 13.874C6.95795 13.9011 7.05901 13.9033 7.15581 13.8804C7.25262 13.8576 7.34195 13.8103 7.41533 13.7432C7.48871 13.6762 7.54369 13.5914 7.57505 13.4972L8.66824 10.2217L13.0772 7.86443C13.3175 7.73567 13.5244 7.5526 13.6813 7.32984C13.8382 7.10707 13.9408 6.85077 13.9809 6.58137C14.021 6.31197 13.9975 6.03694 13.9123 5.77821C13.8271 5.51948 13.6826 5.28421 13.4902 5.09118L9.42426 1.01403Z" fill="#C637E5"/>
<defs>
<linearGradient id="paint0_linear_40_5642" x1="1.08353" y1="3.01124" x2="10.328" y2="12.6162" gradientUnits="userSpaceOnUse">
<stop stop-color="#43E5CA"/>
<stop offset="1" stop-color="#1384B1"/>
</linearGradient>
</defs>
</svg>
