<svg width="25" height="24" viewBox="0 0 25 24" fill="none" xmlns="http://www.w3.org/2000/svg">
<path d="M12.5 18.1111C12.8463 18.1111 13.1368 17.9938 13.3714 17.7591C13.6061 17.5244 13.723 17.2344 13.7222 16.8889C13.7214 16.5434 13.6041 16.2533 13.3702 16.0187C13.1364 15.784 12.8463 15.6667 12.5 15.6667C12.1537 15.6667 11.8636 15.784 11.6298 16.0187C11.3959 16.2533 11.2786 16.5434 11.2778 16.8889C11.277 17.2344 11.3943 17.5249 11.6298 17.7603C11.8653 17.9958 12.1553 18.1127 12.5 18.1111ZM11.2778 13.2222H13.7222V5.88889H11.2778V13.2222ZM7.91667 23L1.5 16.5833V7.41667L7.91667 1H17.0833L23.5 7.41667V16.5833L17.0833 23H7.91667Z" fill="#E94057"/>
</svg>
