<svg width="17" height="16" viewBox="0 0 17 16" fill="none" xmlns="http://www.w3.org/2000/svg">
<path d="M10.66 1.33325H8.064C6.888 1.33325 5.956 1.33325 5.22733 1.43192C4.47667 1.53325 3.86933 1.74659 3.39067 2.22725C2.91133 2.70792 2.69867 3.31792 2.598 4.07125C2.5 4.80325 2.5 5.73858 2.5 6.91925V10.8113C2.5 11.8166 3.11333 12.6779 3.98467 13.0393C3.94 12.4326 3.94 11.5826 3.94 10.8746V7.53459C3.94 6.68059 3.94 5.94392 4.01867 5.35459C4.10333 4.72259 4.294 4.11725 4.78333 3.62592C5.27267 3.13459 5.876 2.94325 6.50533 2.85792C7.092 2.77925 7.82533 2.77925 8.67667 2.77925H10.7233C11.574 2.77925 12.306 2.77925 12.8933 2.85792C12.7174 2.40878 12.4102 2.02308 12.0118 1.75111C11.6135 1.47914 11.1424 1.33352 10.66 1.33325Z" fill="white"/>
<path d="M4.8999 7.59801C4.8999 5.78068 4.8999 4.87201 5.46257 4.30734C6.02457 3.74268 6.92924 3.74268 8.7399 3.74268H10.6599C12.4699 3.74268 13.3752 3.74268 13.9379 4.30734C14.5006 4.87201 14.4999 5.78068 14.4999 7.59801V10.8113C14.4999 12.6287 14.4999 13.5373 13.9379 14.102C13.3752 14.6667 12.4699 14.6667 10.6599 14.6667H8.7399C6.9299 14.6667 6.02457 14.6667 5.46257 14.102C4.8999 13.5373 4.8999 12.6287 4.8999 10.8113V7.59801Z" fill="white"/>
</svg>
