<svg width="25" height="24" viewBox="0 0 25 24" fill="none" xmlns="http://www.w3.org/2000/svg">
<path d="M19.7778 17H12.7778C11.6748 17 10.7778 17.897 10.7778 19C10.7778 20.103 11.6748 21 12.7778 21H19.7778C20.8808 21 21.7778 20.103 21.7778 19C21.7778 17.897 20.8808 17 19.7778 17ZM19.7778 10H12.7778C11.6748 10 10.7778 10.897 10.7778 12C10.7778 13.103 11.6748 14 12.7778 14H19.7778C20.8808 14 21.7778 13.103 21.7778 12C21.7778 10.897 20.8808 10 19.7778 10ZM19.7778 3H12.7778C11.6748 3 10.7778 3.897 10.7778 5C10.7778 6.103 11.6748 7 12.7778 7H19.7778C20.8808 7 21.7778 6.103 21.7778 5C21.7778 3.897 20.8808 3 19.7778 3Z" fill="white"/>
<path d="M5.77783 21.5C7.15854 21.5 8.27783 20.3807 8.27783 19C8.27783 17.6193 7.15854 16.5 5.77783 16.5C4.39712 16.5 3.27783 17.6193 3.27783 19C3.27783 20.3807 4.39712 21.5 5.77783 21.5Z" fill="white"/>
<path d="M5.77783 14.5C7.15854 14.5 8.27783 13.3807 8.27783 12C8.27783 10.6193 7.15854 9.5 5.77783 9.5C4.39712 9.5 3.27783 10.6193 3.27783 12C3.27783 13.3807 4.39712 14.5 5.77783 14.5Z" fill="white"/>
<path d="M5.77783 7.5C7.15854 7.5 8.27783 6.38071 8.27783 5C8.27783 3.61929 7.15854 2.5 5.77783 2.5C4.39712 2.5 3.27783 3.61929 3.27783 5C3.27783 6.38071 4.39712 7.5 5.77783 7.5Z" fill="white"/>
</svg>
